<svg width="71" height="79" viewBox="0 0 71 79" fill="none" xmlns="http://www.w3.org/2000/svg">
<mask id="path-1-outside-1_70_2267" maskUnits="userSpaceOnUse" x="0" y="0" width="71" height="79" fill="black">
<rect fill="white" width="71" height="79"/>
<path d="M17.7217 25.5375C17.7419 24.8475 17.8027 22.7468 19.2821 22.1825C20.7493 21.6234 22.2479 23.1383 22.5335 23.446C22.9152 23.859 22.8939 24.506 22.4859 24.8914C22.0778 25.2768 21.4368 25.2553 21.0541 24.8434C20.7108 24.4774 20.1853 24.1196 19.9726 24.1053C19.9878 24.1401 19.7782 24.4723 19.7448 25.5967C19.6344 29.3769 22.5436 30.3991 22.5729 30.4094C22.8939 30.5167 23.14 30.7794 23.2291 31.1086L23.2747 31.2772C23.2909 31.3375 23.302 31.3999 23.3071 31.4633C24.1272 41.3237 31.8512 44.514 35.463 44.514C39.0749 44.514 46.7999 41.3237 47.619 31.4633C47.6241 31.3999 47.6352 31.3375 47.6514 31.2772L47.697 31.1086C47.7871 30.7794 48.0332 30.5177 48.3531 30.4094C48.4666 30.3695 51.2906 29.3279 51.1813 25.5967C51.1448 24.3363 50.8856 24.0706 50.8826 24.0675C50.7722 24.0992 50.2082 24.4795 49.872 24.8423C49.4903 25.2553 48.8493 25.2758 48.4402 24.8904C48.0322 24.505 48.0109 23.8579 48.3926 23.445C48.6792 23.1362 50.1808 21.6223 51.645 22.1815C53.1244 22.7458 53.1852 24.8454 53.2054 25.5364C53.3138 29.2502 51.1448 31.3059 49.5925 32.094C48.5425 42.0668 40.7517 46.5574 35.462 46.5574C30.1723 46.5574 22.3826 42.0658 21.3315 32.094C19.7823 31.3069 17.6133 29.2522 17.7217 25.5375ZM63.9134 55.739C63.9134 55.6869 63.9094 55.6348 63.9013 55.5837C62.831 48.5589 57.2193 41.982 49.6037 38.8253C49.0863 38.6117 48.4939 38.8601 48.2823 39.3824C48.0706 39.9048 48.3177 40.5018 48.8341 40.7164C55.7784 43.594 60.8939 49.5157 61.8872 55.8178L61.8913 67.0459C61.8943 67.0827 62.1748 70.6819 60.099 72.9656C58.9244 74.2576 57.1777 74.9119 54.9055 74.9119C54.3466 74.9119 53.893 75.3698 53.893 75.9341C53.893 76.4984 54.3466 76.9563 54.9055 76.9563C57.7752 76.9563 60.0292 76.0741 61.6027 74.3343C64.28 71.375 63.9245 67.0459 63.9124 66.9559L63.9134 55.739ZM15.8363 74.9139C13.564 74.9139 11.8174 74.2587 10.6428 72.9666C8.56698 70.684 8.84747 67.0837 8.85456 66.9579V55.8188C9.84891 49.5168 14.9634 43.595 21.9077 40.7175C22.4251 40.5028 22.6722 39.9058 22.4595 39.3835C22.2469 38.8611 21.6566 38.6127 21.1381 38.8264C13.5235 41.983 7.91185 48.56 6.84155 55.5847C6.83345 55.6358 6.8294 55.6879 6.8294 55.7401L6.83345 66.8659C6.81725 67.0489 6.46184 71.378 9.13909 74.3363C10.7126 76.0762 12.9666 76.9584 15.8363 76.9584C16.3952 76.9584 16.8488 76.5004 16.8488 75.9361C16.8488 75.3719 16.3952 74.9139 15.8363 74.9139ZM50.4785 73.6341C49.2331 73.6341 48.097 73.1925 47.1796 72.478C44.2603 75.9852 40.0065 78 35.4651 78C30.9216 78 26.7063 75.9934 23.789 72.5035C22.8767 73.2027 21.7528 73.6341 20.5215 73.6341C17.5232 73.6341 15.0839 71.1715 15.0839 68.1447L15.0829 61.1793C15.0748 59.6838 15.0657 57.9879 16.2585 56.7766C17.1496 55.8719 18.5449 55.4324 20.5215 55.4324C20.9994 55.4324 21.4399 55.461 21.851 55.5121C24.4563 50.3877 29.7339 47.1013 35.4661 47.1013C41.1679 47.1013 46.3604 50.2681 49.0174 55.3659C49.0437 55.417 49.0457 55.4712 49.063 55.5244C49.4984 55.4651 49.9672 55.4324 50.4796 55.4324C52.4571 55.4324 53.8514 55.8719 54.7425 56.7766C55.9353 57.9879 55.9262 59.6828 55.9181 61.1793L55.9171 68.1447C55.9161 71.1715 53.4768 73.6341 50.4785 73.6341ZM38.0816 49.4094V55.6235C40.0308 56.3769 41.58 57.9409 42.3253 59.9077H45.0602C45.12 58.7832 45.3509 57.6526 46.2146 56.7766C46.4687 56.518 46.7766 56.3084 47.1148 56.1254C45.2061 52.6029 41.8919 50.1781 38.0816 49.4094ZM25.958 65.1077H28.5725C28.2808 64.3094 28.1128 63.4497 28.1128 62.5501C28.1128 62.3487 28.1269 62.1504 28.1431 61.9531H25.958V65.1077ZM35.4651 67.927C38.4015 67.927 40.7912 65.5146 40.7912 62.5501C40.7912 59.5857 38.4026 57.1732 35.4651 57.1732C32.5276 57.1732 30.1389 59.5847 30.1389 62.5501C30.1389 65.5156 32.5286 67.927 35.4651 67.927ZM42.8164 62.5501C42.8164 63.4497 42.6493 64.3094 42.3567 65.1077H45.04L45.039 61.9531H42.785C42.8022 62.1504 42.8164 62.3487 42.8164 62.5501ZM35.4651 49.1457C35.2666 49.1457 35.0702 49.159 34.8737 49.1672V55.1594C35.0691 55.1431 35.2656 55.1288 35.4651 55.1288C35.6646 55.1288 35.861 55.1431 36.0564 55.1594V49.1661C35.86 49.1569 35.6635 49.1457 35.4651 49.1457ZM23.8255 56.0999C24.186 56.289 24.5161 56.5047 24.7834 56.7766C25.6471 57.6526 25.878 58.7832 25.9377 59.9077H28.6039C29.3501 57.9399 30.8994 56.3759 32.8476 55.6235V49.4166C29.0504 50.1945 25.718 52.6284 23.8255 56.0999ZM23.6169 69.5708H21.6221C21.0632 69.5708 20.6096 69.1128 20.6096 68.5485C20.6096 67.9843 21.0632 67.5263 21.6221 67.5263H23.9318V65.8683H21.6211C21.0622 65.8683 20.6085 65.4103 20.6085 64.846C20.6085 64.2818 21.0622 63.8238 21.6211 63.8238H23.9318V62.0329H21.6201C21.0612 62.0329 20.6075 61.5749 20.6075 61.0107C20.6075 60.4464 21.0612 59.9884 21.6201 59.9884H23.9045C23.862 59.2596 23.7394 58.6186 23.3455 58.2179C22.8605 57.7262 21.9097 57.4758 20.5184 57.4758C19.1271 57.4758 18.1763 57.7252 17.6913 58.2179C17.0929 58.8262 17.099 59.9639 17.105 61.1671L17.106 68.1437C17.106 70.043 18.6371 71.5886 20.5184 71.5886C21.8965 71.5896 23.0782 70.7586 23.6169 69.5708ZM45.7437 71.0376C45.7701 71.0049 45.8075 70.9896 45.8359 70.961C45.3417 70.135 45.041 69.1782 45.041 68.1447V67.1522H41.2216C39.8738 68.8664 37.797 69.9715 35.4651 69.9715C33.1331 69.9715 31.0553 68.8664 29.7076 67.1501C29.7055 67.1501 29.7035 67.1511 29.7015 67.1511H25.958V68.1437C25.958 69.1843 25.6532 70.1483 25.153 70.9784C27.6895 74.1391 31.431 75.9545 35.4651 75.9545C39.4617 75.9556 43.2082 74.1626 45.7437 71.0376ZM50.4785 71.5896C52.3599 71.5896 53.8909 70.044 53.8909 68.1447L53.8919 61.1681C53.898 59.9639 53.9041 58.8262 53.3057 58.2179C52.8206 57.7262 51.8698 57.4758 50.4785 57.4758C49.0873 57.4758 48.1365 57.7252 47.6514 58.2179C47.2565 58.6186 47.134 59.2596 47.0925 59.9874H49.3769C49.9358 59.9874 50.3894 60.4454 50.3894 61.0096C50.3894 61.5739 49.9358 62.0319 49.3769 62.0319H47.0651V63.8228H49.3769C49.9358 63.8228 50.3894 64.2807 50.3894 64.845C50.3894 65.4093 49.9358 65.8672 49.3769 65.8672H47.0662V67.5253H49.3769C49.9358 67.5253 50.3894 67.9832 50.3894 68.5475C50.3894 69.1118 49.9358 69.5697 49.3769 69.5697H47.3821C47.9208 70.7586 49.1025 71.5896 50.4785 71.5896ZM36.0564 26.5852V31.5379H33.8601C33.3012 31.5379 32.8476 31.9959 32.8476 32.5601C32.8476 33.1244 33.3012 33.5824 33.8601 33.5824H37.069C37.6279 33.5824 38.0816 33.1244 38.0816 32.5601V26.5852C38.0816 26.021 37.6279 25.563 37.069 25.563C36.5101 25.563 36.0564 26.021 36.0564 26.5852ZM19.2041 18.2919C19.2041 11.0801 19.2142 3.64756 31.8127 2.48222C31.9798 1.65525 33.5483 1 35.4651 1C37.3819 1 38.9504 1.65525 39.1184 2.4812C51.7159 3.64654 51.726 11.0791 51.726 18.2909C51.726 18.8552 51.2724 19.3131 50.7135 19.3131H20.2167C19.6577 19.3142 19.2041 18.8562 19.2041 18.2919ZM21.2303 17.2697H49.6999C49.6735 9.97819 49.0721 4.36312 35.4651 4.36312C21.8581 4.36312 21.2566 9.97819 21.2303 17.2697ZM37.2999 12.6217H33.6303C31.7266 12.6217 30.1693 13.8279 30.1693 15.303H40.7619C40.7608 13.8279 39.2035 12.6217 37.2999 12.6217ZM43.0807 46.2365C42.8427 46.7476 43.0604 47.3558 43.5667 47.596L48.4058 49.8889C48.5425 49.9533 48.6893 49.986 48.8361 49.986C49.0144 49.986 49.1926 49.9389 49.3505 49.8439C49.6391 49.6721 49.8244 49.3675 49.8467 49.0302L50.2294 43.1453C50.2659 42.582 49.8437 42.0954 49.2847 42.0586C48.7268 42.0259 48.2448 42.4491 48.2083 43.0124L47.9228 47.4028L44.4264 45.7458C43.9211 45.5056 43.3186 45.7243 43.0807 46.2365ZM26.5028 45.7458L23.0073 47.4028L22.7218 43.0124C22.6843 42.4491 22.1963 42.0177 21.6454 42.0586C21.0875 42.0965 20.6642 42.583 20.7007 43.1453L21.0834 49.0302C21.1057 49.3675 21.291 49.6721 21.5796 49.8439C21.7376 49.9379 21.9158 49.986 22.094 49.986C22.2408 49.986 22.3876 49.9543 22.5243 49.8889L27.3634 47.596C27.8697 47.3558 28.0874 46.7476 27.8495 46.2365C27.6115 45.7253 27.008 45.5066 26.5028 45.7458ZM17.105 21.7041C17.105 21.1398 16.6524 20.6829 16.0935 20.6829C15.9426 20.6829 1 20.8608 1 36.2677V75.2737C1 75.838 1.45363 76.296 2.01258 76.296C2.57152 76.296 3.02515 75.838 3.02515 75.2737V36.2677C3.02515 22.9236 15.5619 22.7284 16.0955 22.7274C16.6534 22.7253 17.106 22.2674 17.105 21.7041ZM54.9065 20.6829C54.3476 20.6829 53.894 21.1409 53.894 21.7051C53.894 22.2694 54.3476 22.7274 54.9065 22.7274C55.4402 22.7274 67.9749 22.8807 67.9749 36.2677V75.2737C67.9749 75.838 68.4285 76.296 68.9874 76.296C69.5464 76.296 70 75.838 70 75.2737V36.2677C69.999 20.8618 55.0574 20.6829 54.9065 20.6829Z"/>
</mask>
<path d="M17.7217 25.5375C17.7419 24.8475 17.8027 22.7468 19.2821 22.1825C20.7493 21.6234 22.2479 23.1383 22.5335 23.446C22.9152 23.859 22.8939 24.506 22.4859 24.8914C22.0778 25.2768 21.4368 25.2553 21.0541 24.8434C20.7108 24.4774 20.1853 24.1196 19.9726 24.1053C19.9878 24.1401 19.7782 24.4723 19.7448 25.5967C19.6344 29.3769 22.5436 30.3991 22.5729 30.4094C22.8939 30.5167 23.14 30.7794 23.2291 31.1086L23.2747 31.2772C23.2909 31.3375 23.302 31.3999 23.3071 31.4633C24.1272 41.3237 31.8512 44.514 35.463 44.514C39.0749 44.514 46.7999 41.3237 47.619 31.4633C47.6241 31.3999 47.6352 31.3375 47.6514 31.2772L47.697 31.1086C47.7871 30.7794 48.0332 30.5177 48.3531 30.4094C48.4666 30.3695 51.2906 29.3279 51.1813 25.5967C51.1448 24.3363 50.8856 24.0706 50.8826 24.0675C50.7722 24.0992 50.2082 24.4795 49.872 24.8423C49.4903 25.2553 48.8493 25.2758 48.4402 24.8904C48.0322 24.505 48.0109 23.8579 48.3926 23.445C48.6792 23.1362 50.1808 21.6223 51.645 22.1815C53.1244 22.7458 53.1852 24.8454 53.2054 25.5364C53.3138 29.2502 51.1448 31.3059 49.5925 32.094C48.5425 42.0668 40.7517 46.5574 35.462 46.5574C30.1723 46.5574 22.3826 42.0658 21.3315 32.094C19.7823 31.3069 17.6133 29.2522 17.7217 25.5375ZM63.9134 55.739C63.9134 55.6869 63.9094 55.6348 63.9013 55.5837C62.831 48.5589 57.2193 41.982 49.6037 38.8253C49.0863 38.6117 48.4939 38.8601 48.2823 39.3824C48.0706 39.9048 48.3177 40.5018 48.8341 40.7164C55.7784 43.594 60.8939 49.5157 61.8872 55.8178L61.8913 67.0459C61.8943 67.0827 62.1748 70.6819 60.099 72.9656C58.9244 74.2576 57.1777 74.9119 54.9055 74.9119C54.3466 74.9119 53.893 75.3698 53.893 75.9341C53.893 76.4984 54.3466 76.9563 54.9055 76.9563C57.7752 76.9563 60.0292 76.0741 61.6027 74.3343C64.28 71.375 63.9245 67.0459 63.9124 66.9559L63.9134 55.739ZM15.8363 74.9139C13.564 74.9139 11.8174 74.2587 10.6428 72.9666C8.56698 70.684 8.84747 67.0837 8.85456 66.9579V55.8188C9.84891 49.5168 14.9634 43.595 21.9077 40.7175C22.4251 40.5028 22.6722 39.9058 22.4595 39.3835C22.2469 38.8611 21.6566 38.6127 21.1381 38.8264C13.5235 41.983 7.91185 48.56 6.84155 55.5847C6.83345 55.6358 6.8294 55.6879 6.8294 55.7401L6.83345 66.8659C6.81725 67.0489 6.46184 71.378 9.13909 74.3363C10.7126 76.0762 12.9666 76.9584 15.8363 76.9584C16.3952 76.9584 16.8488 76.5004 16.8488 75.9361C16.8488 75.3719 16.3952 74.9139 15.8363 74.9139ZM50.4785 73.6341C49.2331 73.6341 48.097 73.1925 47.1796 72.478C44.2603 75.9852 40.0065 78 35.4651 78C30.9216 78 26.7063 75.9934 23.789 72.5035C22.8767 73.2027 21.7528 73.6341 20.5215 73.6341C17.5232 73.6341 15.0839 71.1715 15.0839 68.1447L15.0829 61.1793C15.0748 59.6838 15.0657 57.9879 16.2585 56.7766C17.1496 55.8719 18.5449 55.4324 20.5215 55.4324C20.9994 55.4324 21.4399 55.461 21.851 55.5121C24.4563 50.3877 29.7339 47.1013 35.4661 47.1013C41.1679 47.1013 46.3604 50.2681 49.0174 55.3659C49.0437 55.417 49.0457 55.4712 49.063 55.5244C49.4984 55.4651 49.9672 55.4324 50.4796 55.4324C52.4571 55.4324 53.8514 55.8719 54.7425 56.7766C55.9353 57.9879 55.9262 59.6828 55.9181 61.1793L55.9171 68.1447C55.9161 71.1715 53.4768 73.6341 50.4785 73.6341ZM38.0816 49.4094V55.6235C40.0308 56.3769 41.58 57.9409 42.3253 59.9077H45.0602C45.12 58.7832 45.3509 57.6526 46.2146 56.7766C46.4687 56.518 46.7766 56.3084 47.1148 56.1254C45.2061 52.6029 41.8919 50.1781 38.0816 49.4094ZM25.958 65.1077H28.5725C28.2808 64.3094 28.1128 63.4497 28.1128 62.5501C28.1128 62.3487 28.1269 62.1504 28.1431 61.9531H25.958V65.1077ZM35.4651 67.927C38.4015 67.927 40.7912 65.5146 40.7912 62.5501C40.7912 59.5857 38.4026 57.1732 35.4651 57.1732C32.5276 57.1732 30.1389 59.5847 30.1389 62.5501C30.1389 65.5156 32.5286 67.927 35.4651 67.927ZM42.8164 62.5501C42.8164 63.4497 42.6493 64.3094 42.3567 65.1077H45.04L45.039 61.9531H42.785C42.8022 62.1504 42.8164 62.3487 42.8164 62.5501ZM35.4651 49.1457C35.2666 49.1457 35.0702 49.159 34.8737 49.1672V55.1594C35.0691 55.1431 35.2656 55.1288 35.4651 55.1288C35.6646 55.1288 35.861 55.1431 36.0564 55.1594V49.1661C35.86 49.1569 35.6635 49.1457 35.4651 49.1457ZM23.8255 56.0999C24.186 56.289 24.5161 56.5047 24.7834 56.7766C25.6471 57.6526 25.878 58.7832 25.9377 59.9077H28.6039C29.3501 57.9399 30.8994 56.3759 32.8476 55.6235V49.4166C29.0504 50.1945 25.718 52.6284 23.8255 56.0999ZM23.6169 69.5708H21.6221C21.0632 69.5708 20.6096 69.1128 20.6096 68.5485C20.6096 67.9843 21.0632 67.5263 21.6221 67.5263H23.9318V65.8683H21.6211C21.0622 65.8683 20.6085 65.4103 20.6085 64.846C20.6085 64.2818 21.0622 63.8238 21.6211 63.8238H23.9318V62.0329H21.6201C21.0612 62.0329 20.6075 61.5749 20.6075 61.0107C20.6075 60.4464 21.0612 59.9884 21.6201 59.9884H23.9045C23.862 59.2596 23.7394 58.6186 23.3455 58.2179C22.8605 57.7262 21.9097 57.4758 20.5184 57.4758C19.1271 57.4758 18.1763 57.7252 17.6913 58.2179C17.0929 58.8262 17.099 59.9639 17.105 61.1671L17.106 68.1437C17.106 70.043 18.6371 71.5886 20.5184 71.5886C21.8965 71.5896 23.0782 70.7586 23.6169 69.5708ZM45.7437 71.0376C45.7701 71.0049 45.8075 70.9896 45.8359 70.961C45.3417 70.135 45.041 69.1782 45.041 68.1447V67.1522H41.2216C39.8738 68.8664 37.797 69.9715 35.4651 69.9715C33.1331 69.9715 31.0553 68.8664 29.7076 67.1501C29.7055 67.1501 29.7035 67.1511 29.7015 67.1511H25.958V68.1437C25.958 69.1843 25.6532 70.1483 25.153 70.9784C27.6895 74.1391 31.431 75.9545 35.4651 75.9545C39.4617 75.9556 43.2082 74.1626 45.7437 71.0376ZM50.4785 71.5896C52.3599 71.5896 53.8909 70.044 53.8909 68.1447L53.8919 61.1681C53.898 59.9639 53.9041 58.8262 53.3057 58.2179C52.8206 57.7262 51.8698 57.4758 50.4785 57.4758C49.0873 57.4758 48.1365 57.7252 47.6514 58.2179C47.2565 58.6186 47.134 59.2596 47.0925 59.9874H49.3769C49.9358 59.9874 50.3894 60.4454 50.3894 61.0096C50.3894 61.5739 49.9358 62.0319 49.3769 62.0319H47.0651V63.8228H49.3769C49.9358 63.8228 50.3894 64.2807 50.3894 64.845C50.3894 65.4093 49.9358 65.8672 49.3769 65.8672H47.0662V67.5253H49.3769C49.9358 67.5253 50.3894 67.9832 50.3894 68.5475C50.3894 69.1118 49.9358 69.5697 49.3769 69.5697H47.3821C47.9208 70.7586 49.1025 71.5896 50.4785 71.5896ZM36.0564 26.5852V31.5379H33.8601C33.3012 31.5379 32.8476 31.9959 32.8476 32.5601C32.8476 33.1244 33.3012 33.5824 33.8601 33.5824H37.069C37.6279 33.5824 38.0816 33.1244 38.0816 32.5601V26.5852C38.0816 26.021 37.6279 25.563 37.069 25.563C36.5101 25.563 36.0564 26.021 36.0564 26.5852ZM19.2041 18.2919C19.2041 11.0801 19.2142 3.64756 31.8127 2.48222C31.9798 1.65525 33.5483 1 35.4651 1C37.3819 1 38.9504 1.65525 39.1184 2.4812C51.7159 3.64654 51.726 11.0791 51.726 18.2909C51.726 18.8552 51.2724 19.3131 50.7135 19.3131H20.2167C19.6577 19.3142 19.2041 18.8562 19.2041 18.2919ZM21.2303 17.2697H49.6999C49.6735 9.97819 49.0721 4.36312 35.4651 4.36312C21.8581 4.36312 21.2566 9.97819 21.2303 17.2697ZM37.2999 12.6217H33.6303C31.7266 12.6217 30.1693 13.8279 30.1693 15.303H40.7619C40.7608 13.8279 39.2035 12.6217 37.2999 12.6217ZM43.0807 46.2365C42.8427 46.7476 43.0604 47.3558 43.5667 47.596L48.4058 49.8889C48.5425 49.9533 48.6893 49.986 48.8361 49.986C49.0144 49.986 49.1926 49.9389 49.3505 49.8439C49.6391 49.6721 49.8244 49.3675 49.8467 49.0302L50.2294 43.1453C50.2659 42.582 49.8437 42.0954 49.2847 42.0586C48.7268 42.0259 48.2448 42.4491 48.2083 43.0124L47.9228 47.4028L44.4264 45.7458C43.9211 45.5056 43.3186 45.7243 43.0807 46.2365ZM26.5028 45.7458L23.0073 47.4028L22.7218 43.0124C22.6843 42.4491 22.1963 42.0177 21.6454 42.0586C21.0875 42.0965 20.6642 42.583 20.7007 43.1453L21.0834 49.0302C21.1057 49.3675 21.291 49.6721 21.5796 49.8439C21.7376 49.9379 21.9158 49.986 22.094 49.986C22.2408 49.986 22.3876 49.9543 22.5243 49.8889L27.3634 47.596C27.8697 47.3558 28.0874 46.7476 27.8495 46.2365C27.6115 45.7253 27.008 45.5066 26.5028 45.7458ZM17.105 21.7041C17.105 21.1398 16.6524 20.6829 16.0935 20.6829C15.9426 20.6829 1 20.8608 1 36.2677V75.2737C1 75.838 1.45363 76.296 2.01258 76.296C2.57152 76.296 3.02515 75.838 3.02515 75.2737V36.2677C3.02515 22.9236 15.5619 22.7284 16.0955 22.7274C16.6534 22.7253 17.106 22.2674 17.105 21.7041ZM54.9065 20.6829C54.3476 20.6829 53.894 21.1409 53.894 21.7051C53.894 22.2694 54.3476 22.7274 54.9065 22.7274C55.4402 22.7274 67.9749 22.8807 67.9749 36.2677V75.2737C67.9749 75.838 68.4285 76.296 68.9874 76.296C69.5464 76.296 70 75.838 70 75.2737V36.2677C69.999 20.8618 55.0574 20.6829 54.9065 20.6829Z" fill="#686242"/>
<path d="M17.7217 25.5375C17.7419 24.8475 17.8027 22.7468 19.2821 22.1825C20.7493 21.6234 22.2479 23.1383 22.5335 23.446C22.9152 23.859 22.8939 24.506 22.4859 24.8914C22.0778 25.2768 21.4368 25.2553 21.0541 24.8434C20.7108 24.4774 20.1853 24.1196 19.9726 24.1053C19.9878 24.1401 19.7782 24.4723 19.7448 25.5967C19.6344 29.3769 22.5436 30.3991 22.5729 30.4094C22.8939 30.5167 23.14 30.7794 23.2291 31.1086L23.2747 31.2772C23.2909 31.3375 23.302 31.3999 23.3071 31.4633C24.1272 41.3237 31.8512 44.514 35.463 44.514C39.0749 44.514 46.7999 41.3237 47.619 31.4633C47.6241 31.3999 47.6352 31.3375 47.6514 31.2772L47.697 31.1086C47.7871 30.7794 48.0332 30.5177 48.3531 30.4094C48.4666 30.3695 51.2906 29.3279 51.1813 25.5967C51.1448 24.3363 50.8856 24.0706 50.8826 24.0675C50.7722 24.0992 50.2082 24.4795 49.872 24.8423C49.4903 25.2553 48.8493 25.2758 48.4402 24.8904C48.0322 24.505 48.0109 23.8579 48.3926 23.445C48.6792 23.1362 50.1808 21.6223 51.645 22.1815C53.1244 22.7458 53.1852 24.8454 53.2054 25.5364C53.3138 29.2502 51.1448 31.3059 49.5925 32.094C48.5425 42.0668 40.7517 46.5574 35.462 46.5574C30.1723 46.5574 22.3826 42.0658 21.3315 32.094C19.7823 31.3069 17.6133 29.2522 17.7217 25.5375ZM63.9134 55.739C63.9134 55.6869 63.9094 55.6348 63.9013 55.5837C62.831 48.5589 57.2193 41.982 49.6037 38.8253C49.0863 38.6117 48.4939 38.8601 48.2823 39.3824C48.0706 39.9048 48.3177 40.5018 48.8341 40.7164C55.7784 43.594 60.8939 49.5157 61.8872 55.8178L61.8913 67.0459C61.8943 67.0827 62.1748 70.6819 60.099 72.9656C58.9244 74.2576 57.1777 74.9119 54.9055 74.9119C54.3466 74.9119 53.893 75.3698 53.893 75.9341C53.893 76.4984 54.3466 76.9563 54.9055 76.9563C57.7752 76.9563 60.0292 76.0741 61.6027 74.3343C64.28 71.375 63.9245 67.0459 63.9124 66.9559L63.9134 55.739ZM15.8363 74.9139C13.564 74.9139 11.8174 74.2587 10.6428 72.9666C8.56698 70.684 8.84747 67.0837 8.85456 66.9579V55.8188C9.84891 49.5168 14.9634 43.595 21.9077 40.7175C22.4251 40.5028 22.6722 39.9058 22.4595 39.3835C22.2469 38.8611 21.6566 38.6127 21.1381 38.8264C13.5235 41.983 7.91185 48.56 6.84155 55.5847C6.83345 55.6358 6.8294 55.6879 6.8294 55.7401L6.83345 66.8659C6.81725 67.0489 6.46184 71.378 9.13909 74.3363C10.7126 76.0762 12.9666 76.9584 15.8363 76.9584C16.3952 76.9584 16.8488 76.5004 16.8488 75.9361C16.8488 75.3719 16.3952 74.9139 15.8363 74.9139ZM50.4785 73.6341C49.2331 73.6341 48.097 73.1925 47.1796 72.478C44.2603 75.9852 40.0065 78 35.4651 78C30.9216 78 26.7063 75.9934 23.789 72.5035C22.8767 73.2027 21.7528 73.6341 20.5215 73.6341C17.5232 73.6341 15.0839 71.1715 15.0839 68.1447L15.0829 61.1793C15.0748 59.6838 15.0657 57.9879 16.2585 56.7766C17.1496 55.8719 18.5449 55.4324 20.5215 55.4324C20.9994 55.4324 21.4399 55.461 21.851 55.5121C24.4563 50.3877 29.7339 47.1013 35.4661 47.1013C41.1679 47.1013 46.3604 50.2681 49.0174 55.3659C49.0437 55.417 49.0457 55.4712 49.063 55.5244C49.4984 55.4651 49.9672 55.4324 50.4796 55.4324C52.4571 55.4324 53.8514 55.8719 54.7425 56.7766C55.9353 57.9879 55.9262 59.6828 55.9181 61.1793L55.9171 68.1447C55.9161 71.1715 53.4768 73.6341 50.4785 73.6341ZM38.0816 49.4094V55.6235C40.0308 56.3769 41.58 57.9409 42.3253 59.9077H45.0602C45.12 58.7832 45.3509 57.6526 46.2146 56.7766C46.4687 56.518 46.7766 56.3084 47.1148 56.1254C45.2061 52.6029 41.8919 50.1781 38.0816 49.4094ZM25.958 65.1077H28.5725C28.2808 64.3094 28.1128 63.4497 28.1128 62.5501C28.1128 62.3487 28.1269 62.1504 28.1431 61.9531H25.958V65.1077ZM35.4651 67.927C38.4015 67.927 40.7912 65.5146 40.7912 62.5501C40.7912 59.5857 38.4026 57.1732 35.4651 57.1732C32.5276 57.1732 30.1389 59.5847 30.1389 62.5501C30.1389 65.5156 32.5286 67.927 35.4651 67.927ZM42.8164 62.5501C42.8164 63.4497 42.6493 64.3094 42.3567 65.1077H45.04L45.039 61.9531H42.785C42.8022 62.1504 42.8164 62.3487 42.8164 62.5501ZM35.4651 49.1457C35.2666 49.1457 35.0702 49.159 34.8737 49.1672V55.1594C35.0691 55.1431 35.2656 55.1288 35.4651 55.1288C35.6646 55.1288 35.861 55.1431 36.0564 55.1594V49.1661C35.86 49.1569 35.6635 49.1457 35.4651 49.1457ZM23.8255 56.0999C24.186 56.289 24.5161 56.5047 24.7834 56.7766C25.6471 57.6526 25.878 58.7832 25.9377 59.9077H28.6039C29.3501 57.9399 30.8994 56.3759 32.8476 55.6235V49.4166C29.0504 50.1945 25.718 52.6284 23.8255 56.0999ZM23.6169 69.5708H21.6221C21.0632 69.5708 20.6096 69.1128 20.6096 68.5485C20.6096 67.9843 21.0632 67.5263 21.6221 67.5263H23.9318V65.8683H21.6211C21.0622 65.8683 20.6085 65.4103 20.6085 64.846C20.6085 64.2818 21.0622 63.8238 21.6211 63.8238H23.9318V62.0329H21.6201C21.0612 62.0329 20.6075 61.5749 20.6075 61.0107C20.6075 60.4464 21.0612 59.9884 21.6201 59.9884H23.9045C23.862 59.2596 23.7394 58.6186 23.3455 58.2179C22.8605 57.7262 21.9097 57.4758 20.5184 57.4758C19.1271 57.4758 18.1763 57.7252 17.6913 58.2179C17.0929 58.8262 17.099 59.9639 17.105 61.1671L17.106 68.1437C17.106 70.043 18.6371 71.5886 20.5184 71.5886C21.8965 71.5896 23.0782 70.7586 23.6169 69.5708ZM45.7437 71.0376C45.7701 71.0049 45.8075 70.9896 45.8359 70.961C45.3417 70.135 45.041 69.1782 45.041 68.1447V67.1522H41.2216C39.8738 68.8664 37.797 69.9715 35.4651 69.9715C33.1331 69.9715 31.0553 68.8664 29.7076 67.1501C29.7055 67.1501 29.7035 67.1511 29.7015 67.1511H25.958V68.1437C25.958 69.1843 25.6532 70.1483 25.153 70.9784C27.6895 74.1391 31.431 75.9545 35.4651 75.9545C39.4617 75.9556 43.2082 74.1626 45.7437 71.0376ZM50.4785 71.5896C52.3599 71.5896 53.8909 70.044 53.8909 68.1447L53.8919 61.1681C53.898 59.9639 53.9041 58.8262 53.3057 58.2179C52.8206 57.7262 51.8698 57.4758 50.4785 57.4758C49.0873 57.4758 48.1365 57.7252 47.6514 58.2179C47.2565 58.6186 47.134 59.2596 47.0925 59.9874H49.3769C49.9358 59.9874 50.3894 60.4454 50.3894 61.0096C50.3894 61.5739 49.9358 62.0319 49.3769 62.0319H47.0651V63.8228H49.3769C49.9358 63.8228 50.3894 64.2807 50.3894 64.845C50.3894 65.4093 49.9358 65.8672 49.3769 65.8672H47.0662V67.5253H49.3769C49.9358 67.5253 50.3894 67.9832 50.3894 68.5475C50.3894 69.1118 49.9358 69.5697 49.3769 69.5697H47.3821C47.9208 70.7586 49.1025 71.5896 50.4785 71.5896ZM36.0564 26.5852V31.5379H33.8601C33.3012 31.5379 32.8476 31.9959 32.8476 32.5601C32.8476 33.1244 33.3012 33.5824 33.8601 33.5824H37.069C37.6279 33.5824 38.0816 33.1244 38.0816 32.5601V26.5852C38.0816 26.021 37.6279 25.563 37.069 25.563C36.5101 25.563 36.0564 26.021 36.0564 26.5852ZM19.2041 18.2919C19.2041 11.0801 19.2142 3.64756 31.8127 2.48222C31.9798 1.65525 33.5483 1 35.4651 1C37.3819 1 38.9504 1.65525 39.1184 2.4812C51.7159 3.64654 51.726 11.0791 51.726 18.2909C51.726 18.8552 51.2724 19.3131 50.7135 19.3131H20.2167C19.6577 19.3142 19.2041 18.8562 19.2041 18.2919ZM21.2303 17.2697H49.6999C49.6735 9.97819 49.0721 4.36312 35.4651 4.36312C21.8581 4.36312 21.2566 9.97819 21.2303 17.2697ZM37.2999 12.6217H33.6303C31.7266 12.6217 30.1693 13.8279 30.1693 15.303H40.7619C40.7608 13.8279 39.2035 12.6217 37.2999 12.6217ZM43.0807 46.2365C42.8427 46.7476 43.0604 47.3558 43.5667 47.596L48.4058 49.8889C48.5425 49.9533 48.6893 49.986 48.8361 49.986C49.0144 49.986 49.1926 49.9389 49.3505 49.8439C49.6391 49.6721 49.8244 49.3675 49.8467 49.0302L50.2294 43.1453C50.2659 42.582 49.8437 42.0954 49.2847 42.0586C48.7268 42.0259 48.2448 42.4491 48.2083 43.0124L47.9228 47.4028L44.4264 45.7458C43.9211 45.5056 43.3186 45.7243 43.0807 46.2365ZM26.5028 45.7458L23.0073 47.4028L22.7218 43.0124C22.6843 42.4491 22.1963 42.0177 21.6454 42.0586C21.0875 42.0965 20.6642 42.583 20.7007 43.1453L21.0834 49.0302C21.1057 49.3675 21.291 49.6721 21.5796 49.8439C21.7376 49.9379 21.9158 49.986 22.094 49.986C22.2408 49.986 22.3876 49.9543 22.5243 49.8889L27.3634 47.596C27.8697 47.3558 28.0874 46.7476 27.8495 46.2365C27.6115 45.7253 27.008 45.5066 26.5028 45.7458ZM17.105 21.7041C17.105 21.1398 16.6524 20.6829 16.0935 20.6829C15.9426 20.6829 1 20.8608 1 36.2677V75.2737C1 75.838 1.45363 76.296 2.01258 76.296C2.57152 76.296 3.02515 75.838 3.02515 75.2737V36.2677C3.02515 22.9236 15.5619 22.7284 16.0955 22.7274C16.6534 22.7253 17.106 22.2674 17.105 21.7041ZM54.9065 20.6829C54.3476 20.6829 53.894 21.1409 53.894 21.7051C53.894 22.2694 54.3476 22.7274 54.9065 22.7274C55.4402 22.7274 67.9749 22.8807 67.9749 36.2677V75.2737C67.9749 75.838 68.4285 76.296 68.9874 76.296C69.5464 76.296 70 75.838 70 75.2737V36.2677C69.999 20.8618 55.0574 20.6829 54.9065 20.6829Z" stroke="#686242" mask="url(#path-1-outside-1_70_2267)"/>
</svg>
