<svg width="16" height="16" viewBox="0 0 16 16" fill="none" xmlns="http://www.w3.org/2000/svg">
<path d="M4.00104 0.223635C4.91625 0.891062 5.6294 1.80254 6.23916 2.67398L6.59339 3.18977L6.92755 3.68231C7.27087 4.18443 7.18889 4.86999 6.72247 5.27358L5.15883 6.43453C5.00385 6.54967 4.95232 6.75878 5.04527 6.92792C5.39905 7.57178 6.02933 8.52988 6.7506 9.25097C7.47259 9.97279 8.47618 10.6436 9.16443 11.0371C9.3429 11.1391 9.56738 11.0801 9.68021 10.9082L10.6974 9.35906C11.0876 8.84011 11.816 8.72674 12.3454 9.09314L12.8774 9.46065C13.8699 10.1496 14.9374 10.9325 15.7526 11.9762C16.0264 12.3267 16.067 12.785 15.9038 13.1659C15.2332 14.7304 13.5361 16.0627 11.7708 15.9977L11.5299 15.9843L11.3432 15.9682L11.1366 15.9451L10.911 15.9138L10.6671 15.8732C10.625 15.8656 10.5822 15.8576 10.5386 15.8491L10.2691 15.7926C10.2228 15.7822 10.1758 15.7713 10.1282 15.7599L9.83482 15.6848L9.52665 15.5961L9.20453 15.4925C7.72488 14.9913 5.84734 14.0059 3.92096 12.0799C1.99456 10.154 1.0089 8.27686 0.507605 6.79755L0.403995 6.47551L0.315218 6.16741L0.240162 5.87411L0.177713 5.59646C0.158874 5.50662 0.141951 5.41952 0.126759 5.33531L0.0861858 5.09151L0.0548818 4.86592L0.0317335 4.65937L0.0156279 4.47273L0.00224045 4.23196C-0.0625051 2.47291 1.2853 0.763761 2.84291 0.0963694C3.20841 -0.0602368 3.65109 -0.0315772 4.00104 0.223635ZM10.52 3.10372L10.613 3.11464C11.1963 3.21747 11.7321 3.5023 12.1437 3.92829C12.5551 4.35429 12.8211 4.89958 12.9035 5.48602C12.9652 5.92422 12.6598 6.32933 12.2215 6.39094C11.8145 6.44816 11.436 6.18898 11.3347 5.80082L11.3164 5.70904C11.281 5.45771 11.167 5.22401 10.9907 5.04144C10.8437 4.8893 10.6597 4.77917 10.4578 4.72118L10.3346 4.69273C9.89884 4.61589 9.60777 4.20033 9.68462 3.76456C9.75599 3.3599 10.1195 3.0801 10.52 3.10372ZM10.5267 0.668392C11.1581 0.668392 11.7834 0.792733 12.3668 1.03432C12.9502 1.27592 13.4802 1.63002 13.9268 2.07642C14.3732 2.52282 14.7275 3.05278 14.9691 3.63603C15.2107 4.21927 15.3351 4.8444 15.3351 5.4757C15.3351 5.9182 14.9763 6.27692 14.5337 6.27692C14.1227 6.27692 13.784 5.96762 13.7377 5.56914L13.7323 5.4757C13.7323 5.05483 13.6494 4.63809 13.4883 4.24925C13.3272 3.86042 13.0911 3.50712 12.7934 3.20951C12.4957 2.91192 12.1424 2.67585 11.7534 2.51478C11.4293 2.38057 11.0858 2.30063 10.7367 2.27772L10.5267 2.27083C10.084 2.27083 9.72525 1.91211 9.72525 1.46961C9.72525 1.02711 10.084 0.668392 10.5267 0.668392Z" fill="#F9F7E6"/>
</svg>
