<svg width="19" height="19" viewBox="0 0 19 19" fill="none" xmlns="http://www.w3.org/2000/svg">
<path d="M6.11905 4.12039L6.77681 5.29883C7.37041 6.36231 7.13214 7.75741 6.19719 8.69219C6.19719 8.69219 5.06328 9.82611 7.11926 11.8819C9.17462 13.9369 10.3094 12.8038 10.3094 12.8038C11.2444 11.869 12.6396 11.6308 13.7033 12.2243L14.8819 12.8819C16.4881 13.7781 16.6777 16.0302 15.266 17.4417C14.4177 18.2899 13.3785 18.9499 12.2297 18.9933C10.2958 19.0667 7.01163 18.5774 3.71718 15.2834C0.422759 11.9895 -0.0666754 8.70579 0.00664046 6.77221C0.0501901 5.62361 0.710256 4.58456 1.55856 3.7364C2.9703 2.32488 5.22269 2.51453 6.11905 4.12039Z" fill="#9F974F"/>
<path d="M9.3844 0.638232C9.45149 0.223889 9.84321 -0.0571799 10.2576 0.0098928C10.2833 0.0148075 10.3659 0.0302304 10.409 0.0398571C10.4956 0.0591206 10.6162 0.0887607 10.7666 0.132567C11.0674 0.22016 11.4876 0.364469 11.9919 0.595641C13.0016 1.05849 14.3453 1.86815 15.7397 3.26229C17.1341 4.65644 17.9438 5.99993 18.4067 7.0095C18.638 7.51375 18.7823 7.93388 18.8699 8.23462C18.9136 8.38501 18.9433 8.50562 18.9626 8.59208C18.9722 8.63532 18.9793 8.67004 18.9842 8.69569L18.9901 8.7273C19.057 9.1416 18.7785 9.54957 18.3641 9.61666C17.9509 9.68354 17.5616 9.40376 17.4929 8.99143C17.4908 8.98028 17.4849 8.95059 17.4787 8.92252C17.4662 8.86638 17.4446 8.77739 17.4103 8.65968C17.3417 8.42425 17.2226 8.07432 17.0248 7.64296C16.6297 6.78131 15.9193 5.59148 14.6647 4.3371C13.4102 3.08273 12.2201 2.37239 11.3584 1.97736C10.9269 1.7796 10.577 1.6605 10.3414 1.59192C10.2238 1.55764 10.0758 1.52368 10.0197 1.51119C9.60716 1.44246 9.31751 1.05139 9.3844 0.638232Z" fill="#9F974F"/>
<path fill-rule="evenodd" clip-rule="evenodd" d="M9.61364 4.13371C9.72897 3.73012 10.1497 3.49643 10.5533 3.61173L10.3446 4.3425C10.5533 3.61173 10.5533 3.61173 10.5533 3.61173L10.5549 3.61216L10.5597 3.61359L10.5676 3.61594L10.5877 3.62218C10.6029 3.62707 10.6221 3.63343 10.6448 3.64151C10.6903 3.65766 10.7505 3.68062 10.8243 3.71224C10.9719 3.77551 11.1736 3.87322 11.4215 4.01986C11.9175 4.3134 12.5947 4.80099 13.3903 5.59643C14.1859 6.39188 14.6735 7.06897 14.9671 7.56497C15.1138 7.81274 15.2115 8.01445 15.2748 8.16209C15.3064 8.23586 15.3294 8.29601 15.3455 8.34152C15.3536 8.36427 15.3599 8.38335 15.3649 8.39863L15.3711 8.41868L15.3734 8.42654L15.3744 8.42991L15.3748 8.43147C15.3748 8.43147 15.3753 8.43293 14.6444 8.64172L15.3753 8.43293C15.4907 8.83651 15.2569 9.25714 14.8533 9.37245C14.4531 9.48676 14.036 9.25805 13.9165 8.86075L13.9128 8.84983C13.9074 8.8346 13.8962 8.80462 13.8775 8.76085C13.84 8.67336 13.772 8.53024 13.6589 8.33914C13.4329 7.95737 13.0247 7.38053 12.3153 6.67124C11.606 5.96195 11.029 5.55388 10.6472 5.32794C10.4561 5.21483 10.3129 5.14684 10.2254 5.10934C10.1816 5.09059 10.1516 5.0794 10.1364 5.074L10.1255 5.07026C9.72816 4.95081 9.49932 4.53387 9.61364 4.13371Z" fill="#9F974F"/>
</svg>
