<svg width="20" height="20" viewBox="0 0 20 20" fill="none" xmlns="http://www.w3.org/2000/svg">
<path fill-rule="evenodd" clip-rule="evenodd" d="M2.22182 10.0026C2.22145 8.76069 2.51846 7.53678 3.088 6.43322C3.65754 5.32965 4.48306 4.37851 5.4955 3.65934C6.50794 2.94018 7.67787 2.47391 8.90743 2.29952C10.137 2.12514 11.3904 2.24772 12.5629 2.657C12.8413 2.75395 13.1467 2.73637 13.4121 2.60811C13.6774 2.47986 13.881 2.25144 13.9779 1.97311C14.0749 1.69478 14.0573 1.38934 13.929 1.12397C13.8008 0.858609 13.5724 0.655062 13.294 0.558111C11.2466 -0.156175 9.02255 -0.185609 6.95697 0.474247C4.89139 1.1341 3.09626 2.44749 1.84215 4.21645C0.588034 5.98541 -0.057104 8.11409 0.0039691 10.2816C0.0650422 12.4492 0.829017 14.5382 2.18075 16.2337C3.53248 17.9293 5.39871 19.1395 7.49817 19.682C9.59762 20.2245 11.8165 20.0699 13.8205 19.2414C15.8244 18.413 17.5047 16.9556 18.6082 15.089C19.7118 13.2224 20.1786 11.0476 19.9385 8.89256C19.9224 8.74752 19.878 8.60706 19.8076 8.47921C19.7373 8.35135 19.6425 8.2386 19.5286 8.14739C19.4147 8.05618 19.2839 7.98831 19.1438 7.94763C19.0036 7.90696 18.8568 7.89428 18.7118 7.91033C18.5668 7.92638 18.4263 7.97084 18.2985 8.04118C18.1706 8.11151 18.0579 8.20633 17.9667 8.32024C17.8754 8.43415 17.8076 8.5649 17.7669 8.70504C17.7262 8.84518 17.7135 8.99196 17.7296 9.137C17.8466 10.188 17.7481 11.2518 17.4401 12.2634C17.132 13.2751 16.6209 14.2133 15.938 15.0207C15.255 15.8281 14.4146 16.4877 13.4681 16.9593C12.5216 17.4309 11.4889 17.7045 10.433 17.7634C9.37718 17.8224 8.32041 17.6654 7.3273 17.302C6.33419 16.9387 5.4256 16.3767 4.65706 15.6503C3.88853 14.9239 3.27619 14.0484 2.85748 13.0774C2.43877 12.1063 2.22248 11.06 2.22182 10.0026ZM18.6107 4.07144C18.8058 3.85043 18.9051 3.56097 18.8867 3.26675C18.8684 2.97253 18.7339 2.69764 18.5129 2.50256C18.2919 2.30747 18.0025 2.20818 17.7082 2.22652C17.414 2.24485 17.1391 2.37932 16.944 2.60033L9.79404 10.6892L6.25738 7.80811C6.14429 7.71589 6.01415 7.64685 5.87439 7.60493C5.73462 7.56301 5.58797 7.54902 5.4428 7.56378C5.14962 7.59357 4.88028 7.73862 4.69404 7.967C4.60183 8.08008 4.53279 8.21022 4.49086 8.34999C4.44894 8.48975 4.43496 8.6364 4.44971 8.78157C4.47951 9.07475 4.62455 9.34409 4.85293 9.53033L9.21848 13.0859C9.44089 13.2668 9.72464 13.3548 10.0104 13.3314C10.2962 13.308 10.5618 13.1751 10.7518 12.9603L18.6107 4.07144Z" fill="#9F974F"/>
</svg>
