<svg width="23" height="18" viewBox="0 0 23 18" fill="none" xmlns="http://www.w3.org/2000/svg">
<path fill-rule="evenodd" clip-rule="evenodd" d="M5.75 0C2.57437 0 0 2.5184 0 5.625V12.375C0 15.4816 2.57437 18 5.75 18H17.25C20.4256 18 23 15.4816 23 12.375V5.625C23 2.5184 20.4256 0 17.25 0H5.75ZM6.46844 4.74652C5.97249 4.35838 5.24881 4.43705 4.85205 4.92221C4.45528 5.40739 4.53569 6.11534 5.03164 6.50348L7.90804 8.75453C10.0081 10.398 12.992 10.398 15.092 8.75453L17.9684 6.50348C18.4644 6.11534 18.5448 5.40739 18.148 4.92221C17.7513 4.43705 17.0276 4.35838 16.5316 4.74652L13.6552 6.99761C12.3953 7.98368 10.6048 7.98368 9.3449 6.99761L6.46844 4.74652Z" fill="#9F974F"/>
</svg>
