<svg width="20" height="20" viewBox="0 0 20 20" fill="none" xmlns="http://www.w3.org/2000/svg">
<path d="M10 0C4.5 0 0 4.5 0 10C0 15.5 4.5 20 10 20C15.5 20 20 15.5 20 10V9C19.4 9.9 18.8 10.7 18.3 11.4C17.9 13.6 16.7 15.5 15 16.8C14.9 16.5 14.8 16.1 14.7 15.8C14.6 15.4 14.5 15 14.3 14.6C14.2 14.2 14.1 13.8 13.9 13.5C13.8 13.4 13.6 13.3 13.4 13.2C12.7 13 11.8 13.3 11.3 12.6C11.1 12.3 11.1 12 11.2 11.6C11.4 11.3 11.5 11 11.7 10.7C11.9 10.3 12.2 9.8 12.3 9.3C11.5 8.1 10.7 6.7 10.3 5.4H10.2C10.1 5.4 10.1 5.4 10 5.3C9.8 5.1 9.7 4.6 9.8 4.3C9.8 3.8 10.1 3.5 10 3C10 2.9 9.9 2.1 9.9 2.1C9.6 2.1 9.1 2.1 9.2 1.6V1.5H10H10.5C10.7 0.9 11.1 0.4 11.4 0H10ZM16 0C13.8 0 12 1.8 12 4C12 6.2 16 11 16 11C16 11 20 6.2 20 4C20 1.8 18.2 0 16 0ZM16 2.5C16.8 2.5 17.5 3.2 17.5 4C17.5 4.8 16.8 5.5 16 5.5C15.2 5.5 14.5 4.8 14.5 4C14.5 3.2 15.2 2.5 16 2.5ZM6 3.1C6.4 3.1 6.7 3.1 7 3.2C7.3 3.3 7.6 3.5 7.8 3.7C8 3.9 8.3 4.2 8.3 4.5C8.3 4.6 8.3 4.7 8.2 4.7C8.1 4.8 8 4.8 7.9 4.8C7.6 4.8 7.3 4.8 7.1 4.7C7 4.6 6.8 4.4 6.6 4.3C6.1 4.1 5.2 5.4 5.1 5.8C5 6.1 5 6.8 5.5 6.9C5.8 6.9 6.5 6.3 6.7 6.1C6.9 6 7 5.9 7.2 5.8C8 5.7 8.6 6.4 8.8 7.1C9 7.9 7.6 8.5 7 8.7C6.8 8.8 6.7 8.6 6.5 8.7C6 8.9 5.4 9.6 5.4 10.1C5.4 10.6 5.3 11.1 5.2 11.6C5.1 11.6 5 11.5 5 11.5V11.3C5 11 4.9 10.7 4.6 10.5C4.5 10.5 4.5 10.4 4.4 10.4C4.1 10.3 3.8 10 3.5 10.3C3.3 10.5 3.1 10.8 3.1 11.1C3.1 11.2 3.1 11.3 3.2 11.4C3.4 11.5 3.6 11.4 3.8 11.4C3.9 11.4 4 11.6 4.1 11.7C4.3 12 4.4 12.5 4.8 12.5H5.5H6.8C7.1 12.6 7.6 12.7 7.8 12.9C7.9 13.1 7.9 13.3 8 13.5C8.4 14 9.1 14 9.7 14.2C9.9 14.3 10 14.4 10 14.6C10 14.9 9.9 15.3 9.8 15.6C9.7 15.9 9.6 16.3 9.4 16.5C9.2 16.7 9 16.8 8.8 16.9C8.4 17.1 8.2 17.5 8 17.8C8 17.8 7.9 18 7.8 18.1C7 17.9 6.3 17.6 5.6 17.1V16.9C5.5 16.5 5.4 16.2 5.3 15.9C5.1 15.4 4.8 14.8 4.7 14.3C4.7 13.8 4.8 13.3 4.5 12.9C4.2 12.4 3.4 12.4 2.9 12.1C2.5 11.7 2 11.3 1.6 10.8V10C1.6 7.3 2.9 4.9 4.9 3.3C5.3 3.2 5.6 3.1 6 3.1Z" fill="#9F974F"/>
</svg>
